<svg width="101" height="116" viewBox="0 0 101 116" fill="none" xmlns="http://www.w3.org/2000/svg">
<path d="M50.5 7.61289C60.4608 7.61289 68.5357 15.7007 68.5357 25.6774V29.2903H32.4643V25.6774C32.4643 15.7007 40.5391 7.61289 50.5 7.61289ZM75.75 29.2903V25.6774C75.75 11.7099 64.4452 0.387085 50.5 0.387085C36.5548 0.387085 25.25 11.7099 25.25 25.6774V29.2903H0V101.548C0 109.53 6.45989 116 14.4286 116H86.5714C94.5401 116 101 109.53 101 101.548V29.2903H75.75ZM7.21429 36.5161H93.7857V101.548C93.7857 105.539 90.5558 108.774 86.5714 108.774H14.4286C10.4442 108.774 7.21429 105.539 7.21429 101.548V36.5161Z" fill="black"/>
</svg>
