<svg width="100" height="100" viewBox="0 0 100 100" fill="none" xmlns="http://www.w3.org/2000/svg">
<path d="M50 50C63.8071 50 75 38.8071 75 25C75 11.1929 63.8071 0 50 0C36.1929 0 25 11.1929 25 25C25 38.8071 36.1929 50 50 50ZM66.6667 25C66.6667 34.2047 59.2047 41.6667 50 41.6667C40.7953 41.6667 33.3333 34.2047 33.3333 25C33.3333 15.7953 40.7953 8.33333 50 8.33333C59.2047 8.33333 66.6667 15.7953 66.6667 25Z" fill="black"/>
<path d="M100 91.6667C100 100 91.6667 100 91.6667 100H8.33333C8.33333 100 0 100 0 91.6667C0 83.3333 8.33333 58.3333 50 58.3333C91.6667 58.3333 100 83.3333 100 91.6667ZM91.6665 91.6376C91.6546 89.5811 90.3852 83.4204 84.7324 77.7676C79.2969 72.3321 69.0758 66.6667 49.9999 66.6667C30.924 66.6667 20.7029 72.3321 15.2675 77.7676C9.61462 83.4204 8.3452 89.5811 8.33333 91.6376H91.6665Z" fill="black"/>
</svg>
